<svg width="924" height="924" xmlns="http://www.w3.org/2000/svg" xmlns:xlink="http://www.w3.org/1999/xlink" xml:space="preserve" overflow="hidden"><defs><clipPath id="clip0"><rect x="1359" y="707" width="924" height="924"/></clipPath><clipPath id="clip1"><rect x="1567" y="807" width="508" height="509"/></clipPath><clipPath id="clip2"><rect x="1567" y="807" width="508" height="509"/></clipPath></defs><g clip-path="url(#clip0)" transform="translate(-1359 -707)"><rect x="1359" y="707" width="924" height="924"/><text fill="#FFFFFF" font-family="Arial Black,Arial Black_MSFontService,sans-serif" font-weight="900" font-size="92" transform="matrix(1 0 0 1 1571.91 1543)">On</text><text fill="#FFFFFF" font-family="Arial Black,Arial Black_MSFontService,sans-serif" font-weight="900" font-size="92" transform="matrix(1 0 0 1 1709.41 1543)">-</text><text fill="#FFFFFF" font-family="Arial Black,Arial Black_MSFontService,sans-serif" font-weight="900" font-size="92" transform="matrix(1 0 0 1 1739.78 1543)">the</text><text fill="#FFFFFF" font-family="Arial Black,Arial Black_MSFontService,sans-serif" font-weight="900" font-size="92" transform="matrix(1 0 0 1 1903.06 1543)">-</text><text fill="#FFFFFF" font-family="Arial Black,Arial Black_MSFontService,sans-serif" font-weight="900" font-size="92" transform="matrix(1 0 0 1 1933.42 1543)">Go</text><g clip-path="url(#clip1)"><g clip-path="url(#clip2)"><g><path d="M738.892 162.114 698.174 162.114 698.174 130.666 817.967 130.666 817.967 162.114 777.249 162.114 777.249 260.822 738.892 260.822 738.892 162.114Z" fill="#FFFFFF" transform="matrix(1 0 0 1.05974 1442.31 681.477)"/><path d="M838.624 130.666 876.981 130.666 876.981 178.657 921.518 178.657 921.518 130.666 959.875 130.666 959.875 260.822 921.518 260.822 921.518 208.651 876.981 208.651 876.981 260.822 838.624 260.822 838.624 130.666Z" fill="#FFFFFF" transform="matrix(1 0 0 1.05974 1442.31 681.477)"/><path d="M984.127 130.666 1084.29 130.666 1084.29 160.84 1021.21 160.84 1021.21 182.654 1080.84 182.654 1080.84 207.561 1021.21 207.561 1021.21 230.645 1086.11 230.645 1086.11 260.822 984.127 260.822 984.127 130.666Z" fill="#FFFFFF" transform="matrix(1 0 0 1.05974 1442.31 681.477)"/><path d="M709.96 458.204 809.578 458.204 809.578 490.923 748.317 490.923 748.317 512.736 801.218 512.736 801.218 541.459 748.317 541.459 748.317 588.36 709.96 588.36 709.96 458.204Z" fill="#FFFFFF" transform="matrix(1 0 0 1.05974 1442.31 681.477)"/><path d="M833.925 534.914 833.925 458.204 872.282 458.204 872.282 533.644C872.282 549.458 881.188 559.638 895.002 559.638 908.636 559.638 917.726 549.277 917.726 533.644L917.726 458.204 956.082 458.204 956.082 534.914C956.082 569.272 931.359 591.086 895.002 591.086 858.648 591.086 833.925 569.272 833.925 534.914Z" fill="#FFFFFF" transform="matrix(1 0 0 1.05974 1442.31 681.477)"/><path d="M982.199 458.204 1023.28 458.204 1066 538.914 1067.82 538.914 1067.82 458.204 1103.63 458.204 1103.63 588.36 1062.55 588.36 1019.83 507.83 1018.01 507.83 1018.01 588.36 982.199 588.36 982.199 458.204Z" fill="#FFFFFF" transform="matrix(1 0 0 1.05974 1442.31 681.477)"/><path d="M1130.15 458.204 1183.23 458.204C1227.96 458.204 1257.77 484.198 1257.77 523.28 1257.77 562.366 1227.96 588.36 1183.23 588.36L1130.15 588.36 1130.15 458.204ZM1183.23 559.457C1205.05 559.457 1219.41 545.278 1219.41 523.28 1219.41 501.286 1205.05 487.107 1183.23 487.107L1167.24 487.107 1167.24 559.457 1183.23 559.457Z" fill="#FFFFFF" transform="matrix(1 0 0 1.05974 1442.31 681.477)"/><path d="M509.471 344.525C501.105 335.882 489.87 331.122 477.832 331.122 466.34 331.122 455.46 335.524 447.196 343.514 433.78 356.492 429.767 376.746 437.453 392.789 438.904 395.764 439.996 398.306 440.322 399.079 459.425 444.114 448.646 497.217 413.5 531.223 391.168 552.831 361.761 564.728 330.696 564.728 307.16 564.728 284.415 557.892 264.919 544.961L264.528 544.701C263.606 544.09 262.568 543.77 261.525 543.77L260.969 543.792 260.701 543.836C259.264 544.077 257.972 544.907 257.169 546.099 256.757 546.701 256.478 547.37 256.339 548.086 255.982 549.909 256.673 551.829 258.139 553.1L258.54 553.445C288.701 579.696 327.411 594.154 367.54 594.154 367.541 594.154 367.54 594.154 367.543 594.154 410.88 594.154 451.911 577.554 483.065 547.408 533.324 498.783 547.77 423.302 518.981 359.518 513.975 349.06 509.609 344.661 509.471 344.525Z" fill="#FFFFFF" transform="matrix(1 0 0 1.05974 1442.31 681.477)"/><path d="M286.567 446.317C293.544 446.317 297.147 445.397 297.475 445.306 321.017 439.408 335.377 415.442 329.487 391.882 324.958 373.77 309.423 360.171 291.683 358.802 288.381 358.574 285.63 358.247 284.805 358.146 236.251 352.169 195.65 316.281 183.775 268.841 170.293 214.99 196.533 157.985 246.165 133.297L246.579 133.094C247.837 132.47 248.785 131.449 249.252 130.207 249.764 128.828 249.694 127.339 249.049 125.998 248.731 125.349 248.295 124.778 247.745 124.3 246.815 123.495 245.605 123.051 244.334 123.051 243.713 123.051 243.098 123.155 242.497 123.361L242.006 123.536C202.811 137.005 170.244 164.529 150.306 201.045 130.25 237.773 124.805 280.374 134.975 320.997 151.958 388.833 210.103 439.084 279.735 446.044 282.092 446.225 284.391 446.317 286.567 446.317Z" fill="#FFFFFF" transform="matrix(1 0 0 1.05974 1442.31 681.477)"/><path d="M601.315 206.002C579.533 170.266 545.364 144.25 505.099 132.745 490.153 128.477 474.768 126.312 459.369 126.312 406.052 126.312 355.62 152.189 324.421 195.588 317.872 205.152 316.243 211.133 316.194 211.323 309.531 234.658 323.106 259.077 346.455 265.757 350.466 266.904 354.616 267.484 358.79 267.484 373.149 267.484 386.308 260.791 394.001 249.556 395.852 246.812 397.513 244.593 398.012 243.928 420.417 214.213 455.964 196.472 493.101 196.472 504.131 196.472 515.154 198.025 525.864 201.086 579.243 216.337 615.491 267.564 612.054 322.882L612.024 323.351C611.935 324.752 612.347 326.08 613.179 327.094 614.108 328.229 615.477 328.935 616.915 329.034L617.316 329.049C617.901 329.049 618.479 328.954 619.058 328.758 620.812 328.149 622.127 326.59 622.49 324.692L622.59 324.172C630.524 283.492 622.967 241.525 601.315 206.002Z" fill="#FFFFFF" transform="matrix(1 0 0 1.05974 1442.31 681.477)"/><path d="M695.134 359.513C695.134 319.16 725.856 291.892 768.213 291.892 798.935 291.892 825.109 309.161 831.109 333.155L795.845 339.883C792.571 330.246 780.937 323.156 768.032 323.156 748.034 323.156 733.491 338.064 733.491 359.513 733.491 380.966 748.579 396.416 769.484 396.416 786.027 396.416 799.661 386.236 800.751 372.422L756.579 372.241 756.579 349.698 837.473 349.698C842.198 395.871 812.93 427.864 768.213 427.864 725.856 427.864 695.134 399.87 695.134 359.513Z" fill="#FFFFFF" transform="matrix(1 0 0 1.05974 1442.31 681.477)"/><path d="M859.596 294.437 897.953 294.437 897.953 391.871 954.124 391.871 954.124 424.593 859.596 424.593 859.596 294.437Z" fill="#FFFFFF" transform="matrix(1 0 0 1.05974 1442.31 681.477)"/><path d="M968.241 359.513C968.241 318.067 997.693 291.892 1041.32 291.892 1084.77 291.892 1114.21 318.067 1114.21 359.513 1114.21 400.96 1084.77 427.319 1041.32 427.319 997.693 427.319 968.241 400.96 968.241 359.513ZM1075.86 359.513C1075.86 337.7 1061.86 323.156 1041.32 323.156 1020.78 323.156 1006.6 337.7 1006.6 359.513 1006.6 381.511 1020.78 395.871 1041.32 395.871 1061.86 395.871 1075.86 381.511 1075.86 359.513Z" fill="#FFFFFF" transform="matrix(1 0 0 1.05974 1442.31 681.477)"/><path d="M1134.87 294.437 1201.58 294.437C1232.31 294.437 1250.49 308.616 1250.49 330.43 1250.49 343.88 1242.13 353.698 1231.58 357.333L1231.58 359.152C1244.49 362.603 1254.12 374.057 1254.12 389.51 1254.12 411.869 1235.4 424.593 1205.04 424.593L1134.87 424.593 1134.87 294.437ZM1194.13 346.608C1203.95 346.608 1210.86 341.519 1210.86 334.245 1210.86 326.975 1203.95 322.066 1194.13 322.066L1173.23 322.066 1173.23 346.608 1194.13 346.608ZM1196.68 396.961C1206.86 396.961 1214.49 391.326 1214.49 383.511 1214.49 375.876 1206.86 370.241 1196.68 370.241L1173.23 370.241 1173.23 396.961 1196.68 396.961Z" fill="#FFFFFF" transform="matrix(1 0 0 1.05974 1442.31 681.477)"/><path d="M1306.58 294.437 1362.94 294.437 1403.66 424.593 1364.21 424.593 1358.03 404.779 1311.31 404.779 1305.13 424.593 1265.68 424.593 1306.58 294.437ZM1350.58 377.511 1335.67 326.975 1333.85 326.975 1318.95 377.511 1350.58 377.511Z" fill="#FFFFFF" transform="matrix(1 0 0 1.05974 1442.31 681.477)"/><path d="M1425.4 294.437 1463.75 294.437 1463.75 391.871 1519.92 391.871 1519.92 424.593 1425.4 424.593 1425.4 294.437Z" fill="#FFFFFF" transform="matrix(1 0 0 1.05974 1442.31 681.477)"/></g></g></g><text fill="#FFFFFF" font-family="Arial Black,Arial Black_MSFontService,sans-serif" font-weight="900" font-size="92" transform="matrix(1 0 0 1 1681.02 1428)">DASH</text></g></svg>